<svg width="18" height="18" viewBox="0 0 18 18" fill="none" xmlns="http://www.w3.org/2000/svg">
<path fill-rule="evenodd" clip-rule="evenodd" d="M8.28348 1.53378C4.47746 1.89451 1.5 5.09954 1.5 9C1.5 13.1421 4.85786 16.5 9 16.5C12.9005 16.5 16.1055 13.5225 16.4662 9.71652C15.5914 10.2149 14.5787 10.5 13.5 10.5C10.1863 10.5 7.5 7.81371 7.5 4.5C7.5 3.42132 7.78507 2.40861 8.28348 1.53378ZM9.83231 1.89192C9.30787 2.62784 9 3.52753 9 4.5C9 6.98528 11.0147 9 13.5 9C14.4725 9 15.3722 8.69213 16.1081 8.16769L9.83231 1.89192ZM0 9C0 4.02944 4.02944 0 9 0C9.28953 0 9.57607 0.0136959 9.85898 0.0405115L10.1277 0.0659802L17.934 7.87231L17.9595 8.14102C17.9863 8.42393 18 8.71047 18 9C18 13.9706 13.9706 18 9 18C4.02944 18 0 13.9706 0 9Z" fill="#323539"/>
</svg>
